<svg xmlns="http://www.w3.org/2000/svg" viewBox="0 0 512 512">
<g fill="#FFFFFF">
	<path d="M509.3,186.5c-5.8-19.2-19.1-32-36-41.6c-19.8-11.3-41.5-16.6-63.9-19.8
		c-6.6-0.9-13.2-1.6-20.1-2.4c-1.2-8.8-2.1-17.7-3.5-26.5c-3.7-22.5-9.8-44.2-22.4-63.4c-11.2-17.1-26.1-29.1-47.1-32.1
		c-0.5-0.1-0.9-0.5-1.3-0.7c-4.3,0-8.7,0-13,0c-5,1.3-10,2.3-14.9,3.8c-16.5,5.2-30.8,14.5-42.8,26.8
		c-11.9,12.2-22.5,25.8-33.7,38.8c-1.2,1.4-2.2,2.9-3.2,4.3c-11.3-4.4-22.2-9.2-33.5-13.1c-17.7-6.2-35.9-9.8-54.8-9.5
		C79.1,51.7,52,78.6,51.1,118.7c-0.6,28.7,8.1,55,19.5,80.8c0.9,2.1,1.9,4.2,2.9,6.4c0.1,0.3,0.2,0.6,0.4,1.5
		c-1.4,1-2.9,2.2-4.5,3.3c-19.2,13.7-37,28.9-50.9,48.2c-8.9,12.3-15.5,25.6-17.6,40.8c-0.1,0.8-0.6,1.5-0.9,2.3c0,4.3,0,8.7,0,13
		c0.9,3.3,1.6,6.7,2.6,10c5.5,18.7,18.1,31.5,34.4,41.1c18.3,10.8,38.5,16.4,59.3,19.7c8.7,1.4,17.4,2.3,26.3,3.4
		c1.5,10.8,2.8,21.7,4.7,32.4c3.5,19.6,9.3,38.5,20,55.5c11.4,18.2,26.6,30.9,48.6,34c0.4,0.1,0.8,0.5,1.2,0.8c4.3,0,8.7,0,13,0
		c4.8-1.2,9.7-2.1,14.4-3.6c16.9-5.3,31.4-14.9,43.6-27.3c11.6-11.9,21.9-25,32.7-37.7c1.4-1.6,2.5-3.5,3.9-5.4
		c8.4,3.5,16.6,7.2,24.9,10.3c20.5,7.8,41.6,13.3,63.7,12.4c26.6-1.1,48.3-10.9,60.5-36.1c7-14.5,8.2-30,6.7-45.9
		c-2.2-24-9.9-46.4-19.9-68.1c-0.8-1.8-1.6-3.6-2.7-5.9c1.8-1.3,3.5-2.5,5.2-3.8c18.4-13.1,35.5-27.7,49-45.9
		c9.7-13,17-27,19.2-43.3c0.1-0.6,0.6-1.2,0.8-1.8c0-4.3,0-8.7,0-13C511.1,193.5,510.3,190,509.3,186.5z M376.7,263.7
		c6.7,10.2,12.9,19.6,19.5,29.8c-10.8,5.5-20.8,10.6-32,16.3C368.5,294.1,372.4,279.6,376.7,263.7z M289.8,36.3
		c18.6-9.3,34.8-4.8,46.6,12.3C346.6,63.1,350.9,79.9,354,97c1.5,8,2.3,16.1,3.5,24.6c-1.8,0.2-3.1,0.4-4.3,0.6
		c-18.7,1.6-37.5,3.1-56.2,4.8c-4.5,0.4-8-0.3-11.9-3.1c-16-11.9-32.4-23.3-49.5-35.4C250.6,68.1,266.2,48,289.8,36.3z M358.5,153.4
		c-0.6,12-1.1,23.1-1.7,33.8c-10.7-10.7-21.3-21.3-32.1-32C335.4,154.6,346.5,154,358.5,153.4z M218.4,115.8
		c10.1,6.5,19.5,12.7,30.1,19.5c-16,4.3-30.5,8.1-46.3,12.3C207.8,136.6,212.9,126.6,218.4,115.8z M125.8,306.7
		c-2.3,14.6-2.5,29.5-3.6,44.3c-0.1,1.8,0,3.6,0,6.4c-6.5-0.8-12.6-1.4-18.5-2.3c-16.4-2.4-32.4-6.1-47.1-14
		c-4.9-2.7-9.7-5.9-13.9-9.7c-10.4-9.4-13.5-21.2-9-34.5c2-5.9,4.9-11.7,8.3-16.9c12.2-18.3,29.1-31.8,46.8-44.5
		c10.1,14.5,18.9,29.1,29.8,42.1C126.1,286.8,127.5,295.5,125.8,306.7z M135.3,248.4c-6.8-10.4-12.9-19.8-19.5-30
		c10.7-5.5,20.8-10.6,31.9-16.3C143.5,218,139.6,232.4,135.3,248.4z M104.8,188.8c-1,0.5-2.1,1-4.1,1.9
		c-4.1-11.1-8.6-21.8-12.2-32.8c-4.4-13.7-7-27.7-5.7-42.2c1.7-19,13.7-31.2,32.6-32.9c20-1.8,38.5,3.8,56.9,10.6
		c6,2.2,11.9,5,17.7,7.4c-8.3,17.9-16.6,35-24,52.4c-2.7,6.3-6.2,9.9-12.5,12.6C137,172.9,121,181,104.8,188.8z M155.1,324.4
		c10.9,10.8,21.4,21.3,32.6,32.4c-11.1,0.6-22.1,1.2-34.3,1.8C154,346.7,154.6,335.5,155.1,324.4z M225.9,473.6
		c-5.7,3.2-12.3,5.4-18.7,6.3c-13.2,1.8-23-4.9-30.6-15.1c-9.7-13.2-14.4-28.4-17.5-44.2c-2-9.9-3.2-20-4.8-30.4
		c6.8-0.4,12.8-0.6,18.7-1.1c15.1-1.4,30.1-2.9,45.2-4.3c1.5-0.1,3.5-0.1,4.6,0.7c17.6,12.5,35.2,25.1,53.3,38.2
		C262.2,442.8,247.4,461.7,225.9,473.6z M293.6,396.2c-10.2-6.6-19.7-12.8-30.1-19.6c15.8-4.2,30.3-8,46.2-12.2
		C304.1,375.4,299,385.4,293.6,396.2z M235.8,350c-3.5,0.7-6.2,0.2-9.1-2.3c-22.4-19.5-43.4-40.4-62.8-62.9c-2.1-2.4-2.6-4.6-2-7.7
		c5.6-29.8,13.4-59,23.7-87.5c0.6-1.7,2.6-3.5,4.3-4.1c28.4-10.2,57.4-18,87-23.6c3.3-0.6,5.6,0.1,8.1,2.3
		c22.5,19.4,43.5,40.3,62.8,62.9c1.3,1.5,2.2,3.4,3.2,4.8c-3.1,13.8-5.6,26.9-9.1,39.7c-4.5,16.7-9.8,33.2-15.1,49.6
		c-0.7,2.2-3.2,4.7-5.4,5.5C293.5,336.8,264.9,344.3,235.8,350z M429.2,396.7c-1.5,18.7-13.6,30.7-32.4,32.5
		c-18,1.7-35-2.8-51.7-8.7c-7.9-2.8-15.7-6.3-23.6-9.5c5.6-11.2,10.9-21.7,16-32.4c3.9-8.3,7.2-16.8,11-25.1
		c0.7-1.5,1.8-3.4,3.2-4.1c19.6-9,39.3-17.9,59.7-27.1C421.5,345.8,431.3,369.8,429.2,396.7z M475.6,222.5
		c-8.8,17.8-22.9,30.9-38,43.1c-4.6,3.8-9.5,7.2-14.7,11.1c-1.2-1.7-2.1-3-3-4.3c-10.9-15.7-22-31.3-32.7-47.2
		c-1.4-2.1-2.3-5.1-2.1-7.6c1.4-20.2,3.2-40.5,4.9-60.7c0-0.5,0.2-0.9,0.5-2.4c25.8,2.9,51.2,6.2,73.2,21.2
		C480.8,187.5,484.8,203.8,475.6,222.5z"/>
	<path d="M256,210.2c-25.2,0-45.8,20.6-45.8,45.8c0,25.2,20.6,45.8,45.8,45.9c25,0.1,46-20.9,45.9-45.9C301.7,230.7,281.2,210.2,256,210.2z"/>
</g>
</svg>
