<svg xmlns="http://www.w3.org/2000/svg" viewBox="0 0 128 128">
<g>
	<polygon fill="#FFFFFF" points="57,68.7 71.1,68.7 64,52.8"/>
	<path fill="#FFFFFF" d="M64,16c-26.5,0-48,21.5-48,48c0,26.5,21.5,48,48,48s48-21.5,48-48C112,37.5,90.5,16,64,16z
		 M79.7,80.6c-0.5,0.4-1,0.6-1.7,0.6c-0.4,0-0.8-0.1-1.2-0.4c-0.4-0.2-0.6-0.6-0.8-1l-3.2-7.2H55.3l-3.2,7.2c-0.2,0.4-0.5,0.8-0.9,1
		c-0.4,0.2-0.8,0.4-1.2,0.4c-0.6,0-1.2-0.2-1.7-0.6c-0.5-0.4-0.7-0.9-0.7-1.5c0-0.3,0.1-0.6,0.2-1l13.5-29.6
		c0.2-0.5,0.6-0.9,1.1-1.2c0.5-0.3,1-0.4,1.6-0.4c0.5,0,1.1,0.1,1.6,0.4c0.5,0.3,0.9,0.7,1.1,1.2l13.5,29.6c0.2,0.4,0.2,0.7,0.2,1
		C80.4,79.6,80.2,80.1,79.7,80.6z"/>
</g>
</svg>
