<svg xmlns="http://www.w3.org/2000/svg" viewBox="0 0 128 128">
<path fill="#FFFFFF" d="M52.7,50c4.7-6.9,11.6-10.9,19.6-13.2c1.2-0.4,2.5-0.6,3.8-0.9c-0.2-0.4-0.4-0.7-0.5-1.1
  c-2.8-5.2-6.8-9.3-12.1-12c-12.1-6-24.6-6.4-37-1.2c-9.1,3.8-15.1,10.7-17.5,20.4c-0.4,1.4-0.5,2.8-0.8,4.2v4.2
  c0.1,0.3,0.2,0.7,0.2,1c0.7,5.9,3.1,11.1,7.2,15.4c4.4,4.7,10,7.7,16.2,9.4c0.9,0.3,1.2,0.5,1.1,1.5c-0.5,3.8-1,7.7-1.4,11.5
  c-0.1,0.8,0,1.7,0.4,2.3c0.9,1.6,2.9,1.7,4.4,0.3c4.3-4,8.6-8.1,13-12.1c0.6-0.6,0.7-1,0.4-1.8C45.8,68.3,46.7,58.8,52.7,50z
  M118.9,59.7c-2.7-9.1-9-15.1-17.6-18.6c-6.5-2.7-13.3-3.4-20.2-2.8c-6.8,0.5-13.1,2.3-18.8,6.1C50.8,52,46.8,66.2,52.7,78.4
  c4.7,9.5,12.8,14.2,22.9,15.9c0.7,0.1,1.4,0.5,1.9,0.9c4.9,4.6,9.8,9.2,14.8,13.8c1.2,1.1,2.3,1.3,3.5,0.6
  c1.1-0.6,1.5-1.7,1.4-3.2c-0.5-3.9-0.9-7.8-1.4-11.6c-0.1-0.8,0.1-1.2,0.9-1.5c2.7-1,5.5-1.9,8-3.2c7-3.6,12.1-9,14.3-16.8
  c0.5-1.6,0.7-3.2,1-4.8v-3.9C119.7,63,119.4,61.3,118.9,59.7z M106.3,82.5c-4,3.3-8.7,5.1-13.7,6.2c-2.3,0.5-3.1,1.6-2.8,4
  c0.3,2.1,0.5,4.2,0.8,6.3c0,0.2,0,0.4,0,0.8c-0.5-0.5-0.9-0.8-1.3-1.1c-3.1-2.9-6.1-5.8-9.2-8.6c-0.7-0.6-1.6-1.1-2.5-1.2
  c-5-0.6-9.7-1.9-13.7-5.1C52.2,74.6,52.9,57,65.6,48.6c4.6-3,9.7-4.5,15.1-4.9c7-0.6,13.9,0,20.4,3.2c6.4,3.1,11.1,7.8,12.8,14.8
  C115.9,70.2,112.9,77.1,106.3,82.5z M72.5,66c-2,0-3.5,1.5-3.5,3.5c0,2,1.5,3.5,3.6,3.5c2,0,3.4-1.5,3.4-3.5
  C76,67.4,74.5,66,72.5,66z M97.5,66c-2,0-3.5,1.4-3.5,3.5c0,2.1,1.4,3.5,3.4,3.5c2.1,0,3.6-1.5,3.6-3.5C101,67.5,99.5,66,97.5,66z
  M84.5,66c-2,0-3.5,1.4-3.5,3.5c0,2.1,1.4,3.6,3.5,3.5c2.1,0,3.4-1.5,3.4-3.5C88,67.4,86.5,66,84.5,66z"/>
</svg>
