<svg xmlns="http://www.w3.org/2000/svg" viewBox="0 0 512 512">
<path fill="#FFFFFF" d="M0,358c0-55.7,0-111.3,0-167c6.2,0,12.5,0,19.1,0c0,25,0,49.2,0,73.8c10.5,0,20.5,0,30.9,0c0-2.1,0-3.9,0-5.7
	c0-17.8,0.1-35.6-0.1-53.5c0-3,0.9-4.7,3.6-6.2c23.8-13.7,41.7-32.9,53.5-57.6c1.5-3,3.1-4.1,6.4-4c9.2,0.2,18.3,0.1,27.5,0.1
	c22,0,44,0,66-0.1c1.9,0,4.8,1,4.8-2.6c0.1-9.9,0-19.9,0-30.3c-25,0-49.4,0-74.7,0c0-6.6,0-12.7,0-18.8c56,0,112,0,168,0
	c0,6.1,0,12.2,0,18.9c-25.2,0-49.6,0-74,0c0,11.2,0,21.9,0,33.1c39.6,0,78.7,0,117.6,0c0.5,9.1,0.6,17.8,1.5,26.3
	c2.2,19.9,12.4,31.2,31.7,35.4c3.1,0.7,6.2,1.2,9.4,1.4c7.9,0.6,15.8,1,24.2,1.5c0,11.4,0,22.5,0,33.9c11.7,0,23,0,34.8,0
	c0-12.9,0-25.4,0-38.4c5.2,0,9.8,0,14.5,0c21.8,0.2,40.2,14.7,45.6,35.7c0.7,2.7,1.2,5.4,1.9,8.2c0,37,0,74,0,111
	c-0.5,2.4-1,4.8-1.6,7.2c-5.7,23-26.1,40.8-60.4,36c0-14.3,0-28.7,0-43.2c-11.8,0-23,0-34.9,0c0,8.7,0.1,17.2,0,25.6
	c-0.3,21-14.2,38.8-34.4,44.5c-2.2,0.6-4.4,1.3-6.6,1.9c-70.3,0-140.7,0-211,0c0-8.8,0-17.7-0.1-26.5c-0.3-26.6-21.2-47.4-47.7-47.5
	c-19.6-0.1-39.3,0-58.9,0c-1.9,0-3.9,0-6.3,0c0-22.7,0-44.7,0-66.7c-10.5,0-20.4,0-30.9,0c0,24.7,0,49,0,73.8
	C12.3,358,6.1,358,0,358z M68.9,332.2c16,0,31.4-0.1,46.7,0c34.4,0.4,62.1,25.7,65.6,59.8c0.5,4.6,0.6,9.2,0.9,13.8
	c1.1,0.1,1.7,0.3,2.4,0.3c61.5,0,123,0.1,184.5-0.1c14.5,0,26.6-12.1,27.3-26.6c0.3-5.5,0.1-11,0.1-16.5c0-9.5,0-18.9,0-28.6
	c24.4,0,48.3,0,72.6,0c0,14.5,0,28.6,0,43.3c2.3-0.6,4.1-0.8,5.7-1.5c11.6-4.9,18.1-13.8,18.2-26.3c0.3-35,0.2-70,0-105
	c-0.1-11.8-7.7-22-18.6-26c-1.6-0.6-3.3-0.8-5.6-1.4c0,13.1,0,25.3,0,37.8c-24.2,0-48,0-72.4,0c0-2.1,0-3.9,0-5.7
	c0-8.3-0.1-16.7,0.1-25c0.1-3-0.5-4.5-4-4.7c-4.3-0.2-8.6-1.1-12.8-2c-24-5.2-41.6-17.6-47-43c-1.2-5.8-1.8-11.8-2.7-18.3
	c-2,0-4,0-5.9,0c-66.3,0-132.7,0-199-0.1c-3,0-4.7,0.9-6.3,3.6c-11.6,20.1-27,36.7-46.2,49.7c-2.7,1.8-3.6,3.8-3.5,6.9
	c0.1,32.7,0.1,65.3,0.1,98C68.9,320.2,68.9,325.9,68.9,332.2z"/>
</svg>
