<svg xmlns="http://www.w3.org/2000/svg" viewBox="0 0 128 128">
<path fill="#FFFFFF" d="M108.4,89.4c-0.3-0.8-0.5-1.7-0.5-2.5c-0.1-5.1-0.3-10.2-1.5-15.2c-1.8-7.4-6-13.1-12.1-17.6
			c-0.3-0.2-0.8-0.2-1.2-0.1c-2.1,0.5-4.2,1-6.4,1.5c-0.3,0.1-0.8-0.2-1.1-0.4c-0.6-0.6-1.2-1.4-1.9-2.2c1.3-0.2,2.6-0.3,3.8-0.6
			c1.6-0.4,3.3-0.9,4.9-1.4c0.3-0.1,0.7-0.4,0.8-0.8c1.6-4.4,3.3-8.8,4.9-13.3c0.6-1.8,0.4-2.3-1.3-2.9c-2.5-0.9-5.1-1.6-7.8-1
			c-0.2,0-0.4,0.1-0.5,0.2c-1.2,0.9-2.1,0.2-3.1-0.5c-1.3-0.9-2.7-1.5-4.1-2.2c0.6-1.9,1.4-4,2.1-6.1c0.7-2,0.3-2.9-1.7-3.7
			c-5.8-2.5-11.8-3.9-18.1-4.3c-0.3,0-0.6-0.1-0.9-0.2h-3.8c-1.3,0.5-1.8,1.5-1.7,2.9c0.1,1,0,2,0,3.1c-1.6-0.3-3.2-0.7-4.7-0.9
			c-3.4-0.5-6.7-0.6-10,0.6c-1.7,0.7-2.3,1.8-1.5,3.5c0.7,1.6,1.5,3.2,2.2,4.7c0.1,0.2,0.3,0.5,0.4,0.8c-0.9,0-1.7,0-2.4,0
			c-1-0.1-1.7,0.3-2.1,1.3c-0.3,0.6-0.5,1.3-0.8,2c-0.6-0.1-1.2-0.2-1.8-0.3c-3.1-0.5-6.1,0.1-8.9,1.5c-0.8,0.4-1.1,1.1-0.7,2
			c0.7,1.5,1.4,3.1,2.3,4.5c1.7,2.7,3.5,5.3,4.5,8.4c0.1,0.3,0.5,0.6,0.8,0.6c2.3,0.5,4.7,1,7,1.5c0.4,0.1,0.9,0.1,1.4,0.2
			c-0.7,0.9-1.3,1.8-2,2.6c-0.1,0.2-0.5,0.2-0.8,0.2c-2.1-0.5-4.2-0.9-6.3-1.4c-0.6-0.2-1-0.1-1.5,0.3c-4.9,3.8-7.9,8.9-9.7,14.7
			c-1.5,4.8-2.2,9.8-2.5,14.8c-0.1,2.1-0.1,4.1-0.2,6.2c0,0.3-0.1,0.6-0.3,0.9c-1.7,2.5-3,5.2-3.6,8.3c0,0.1-0.1,0.1-0.1,0.1v1.7
			c0.5,1.9,1.8,2.5,3.6,2.4c2.6-0.1,5.1,0,7.7,0c-0.2,1.1-0.6,2.3-0.7,3.5c-0.1,1.1,0,2.2,0.3,3.3c0.3,1.3,1.4,1.8,2.6,2.2h6
			c1.3-0.1,2.7-0.2,4-0.3c2.1-0.2,4.1-0.6,6.2-0.8c0.9-0.1,1.8,0,2.7,0.1c2.1,0.2,4.1,0.5,6.2,0.8c0.5,0.1,1,0.1,1.6,0.2h15.7
			c1.4-0.1,2.8-0.2,4.2-0.4c0.9-0.1,1.8-0.3,2.7-0.3c1.2,0,2.3,0,3.5,0.1c2.1,0.2,4.2,0.4,6.3,0.6h9.9c2.5-1,3.4-2.5,2.9-5.2
			c-0.2-1-0.4-2.1-0.7-3.2c0.4,0,0.8,0,1.1,0c2.7,0.2,5.3-0.2,7.9-0.7c1.3-0.3,1.9-1.2,2.3-2.3v-1.5
			C110.8,95.8,109.6,92.6,108.4,89.4z M88.7,107.4c0.2-0.3,0.3-0.5,0.4-0.7c0.5-0.9,0.3-2.1-0.4-2.7c-0.8-0.7-2-0.9-2.8-0.1
			c-2.6,2.4-5.8,3-9.1,3.3c-7.8,0.7-15.5,0.5-23.3,0.2c-2.6-0.1-5.1-0.6-7.5-1.6c-1.5-0.6-2.8-1.5-3.8-2.8c-0.9-1.1-2.2-1.2-3.2-0.4
			c-1,0.8-1.1,2.1-0.2,3.2c0.4,0.5,0.8,0.9,1.4,1.6c-3.2,0.1-6.1,0.2-9.3,0.3c0.3-1.1,0.4-2.1,0.7-3c0.9-2.7,2.1-5.1,3.8-7.4
			c0.5-0.7,0.8-1.4,0.7-2.2c0-4.4,0.1-8.9,0-13.3c-0.2-6.3,1.4-12.2,4.4-17.7c3.1-5.7,7-10.7,12-14.7c0.6-0.5,1-0.5,1.7-0.2
			c3.6,1.6,7.5,1.9,11.4,1.5c1.2-0.1,2-1.2,1.9-2.4c-0.1-1.2-1.1-1.9-2.4-2c-2.1,0-4.2-0.2-6.3-0.3c-0.2,0-0.4-0.1-0.5-0.1
			c-3-0.8-3-0.8-3.9-3.8c-1.1-3.9-2.8-7.6-5.1-11c-1.2-1.8-2.3-3.6-3.6-5.6c0.5-0.1,0.8-0.2,1-0.2c3.4-0.3,6.7,0.4,10,1.3
			c0.2,0.1,0.5,0.4,0.5,0.6c0,3.5,0.9,6.8,1.6,10.1c0.1,0.7,0.2,1.4,0.3,2c0.2,1.5,1.2,2.4,2.5,2.2c1.3-0.2,2.1-1.3,1.9-2.8
			c-0.5-2.7-1.2-5.4-1.5-8.1c-0.4-3.3-0.4-6.7-0.6-10.2c6.1,0.2,11.7,1.4,17.3,3.5c-0.1,0.4-0.2,0.7-0.3,1
			c-2.1,5.9-4.3,11.8-6.4,17.7c-0.3,0.9-0.6,1.8-0.9,2.8c-0.3,1.1-0.1,2,0.9,2.6c7.2,5,12.5,11.7,16.6,19.4c2,3.6,3.1,7.4,2.9,11.6
			c-0.1,4.2,0,8.5,0.2,12.7c0.1,1.2,0.5,2.5,0.9,3.7c1.2,3.1,2.5,6.2,3.7,9.3c0.3,0.8,0.5,1.7,0.8,2.7H88.7z M71.3,79.5
			c-1.8-0.9-3.8-1.5-5.7-2.1c-1.9-0.6-3.8-1-5.7-1.7c-1.5-0.5-2.1-1.5-1.9-2.9c0.1-1.2,0.9-2,2.4-2.2c1.1-0.2,2.2-0.2,3.3-0.2
			c3.1,0.1,3.9,0.8,4.5,3.9H75c0.1-3.1-1-5.6-3-7.2c-1.7-1.4-3.6-2-5.7-2.1c-0.6,0-0.9-0.2-0.8-0.9c0.1-0.7,0-1.4,0-2.1h-4.4v2.9
			C60,65,59,65.1,58,65.3c-4.1,0.9-7.2,4.2-7.5,8.1c-0.4,4.3,1.6,7.3,5.9,9c1.8,0.7,3.7,1.1,5.6,1.7c1.8,0.6,3.5,1.1,5.2,1.9
			c1.1,0.5,1.4,1.6,1.2,2.8c-0.2,1.2-0.9,1.9-2.1,2.1c-2,0.4-4,0.5-6,0.1c-1.2-0.2-2-1-2.3-2.2c-0.2-0.8-0.3-1.6-0.5-2.5H50
			c-0.2,5.4,4,10.8,10.7,11.1v3.5h4.4v-3.4c0.6-0.1,1.1-0.2,1.6-0.2c2-0.3,3.9-1.1,5.6-2.2C77,92.1,77.8,82.6,71.3,79.5z"/>
</svg>
