<svg xmlns="http://www.w3.org/2000/svg" viewBox="0 0 512 512">
<g fill="#FFFFFF">
	<path d="M255.6,486.3C128.9,486.4,26,383.2,25.7,255.9C25.4,129.3,129.4,25.4,255.9,25.7
		C383.2,26,486.4,129,486.3,255.6C486.2,383.4,383.4,486.2,255.6,486.3z M268.9,60.6c0,2,0,3.9,0,5.9c0,10.5,0.1,21-0.1,31.5
		c-0.2,7.4-5.7,12.8-12.6,12.9c-7.1,0.1-12.7-5.4-13.1-13c-0.1-1.8,0-3.7,0-5.5c0-10.6,0-21.2,0-31.9
		C142.2,65.5,63.6,152.4,60.8,243.1c12.1,0,24.3-0.1,36.4,0c8,0.1,13.7,5.5,13.7,12.9c0,7.3-5.7,12.8-13.7,12.9
		c-9.5,0.1-19,0-28.5,0c-2.8,0-5.5,0-8.3,0c6.2,101.3,90.2,178.2,182.5,182.5c0.1-1.5,0.2-2.9,0.2-4.4c0-11-0.1-22,0.1-33
		c0.1-7.7,5.8-13.1,13-13c6.9,0.1,12.3,5.5,12.6,12.9c0.1,2.5,0,5,0,7.5c0,10,0,19.9,0,29.9c100.6-4.6,179.7-91.9,182.2-182.5
		c-12,0-24,0.1-35.9,0c-8.4-0.1-14.2-5.4-14.1-12.9c0.1-7.5,5.7-12.7,14.2-12.8c10.2-0.1,20.3,0,30.5,0c1.9,0,3.9,0,5.8,0
		C445.1,139.6,359,64.5,268.9,60.6z"/>
	<path d="M136.9,374.3c11.2-17.7,22.4-35.4,33.6-53.2c18.6-29.4,37.2-58.8,55.8-88.2c1.4-2.2,3.2-4.4,5.3-5.8
		c46.9-29.8,94-59.5,141-89.2c0.6-0.4,1.2-0.6,2.7-1.5c-0.9,1.9-1.3,3-1.9,4C344,187,314.5,233.6,285,280.1c-1.2,1.9-3,3.6-4.8,4.8
		c-46.5,29.5-93.1,59-139.7,88.4c-0.9,0.6-1.9,1.1-2.9,1.6C137.3,374.8,137.1,374.5,136.9,374.3z M273,274.4
		c-11.9-11.9-23.5-23.5-35.4-35.4c-19.8,31.3-39.7,62.8-59.7,94.4c0.3,0.2,0.6,0.4,0.9,0.7C210.3,314.1,241.9,294.1,273,274.4z"/>
</g>
</svg>
