<svg xmlns="http://www.w3.org/2000/svg" viewBox="0 0 128 128">
<path fill="#FFFFFF" d="M98,89.2c0-2.7-0.9-5.1-2.7-7.2c-2-2.4-4.6-3.9-7.5-4.8c-3.7-1.1-7.3-2.2-11-3.3
  c-1.6-0.5-1.7-0.9-0.8-2.4c1.7-3,3.2-6.1,4.9-9.1c0.2-0.4,0.4-0.9,0.8-1.3c2.7-2.6,3.9-7.9,2.6-11.4C84,49,84,48.4,84,47.8
  c0-1.6,0.2-3.3,0.1-4.9c-0.4-8.7-5.6-15.4-13.7-17.6c-6.1-1.7-12.1-0.9-17.7,2c-0.5,0.3-1.1,0.6-1.6,0.7c-3.5,0.8-5.8,3-7.1,6.4
  c-1.6,4.2-1.4,8.5-0.9,12.8c0.1,0.6,0.2,1.3,0,1.9c-1.2,4.4-1,8.5,2.5,11.9c0.2,0.1,0.3,0.3,0.4,0.5c1.7,3.3,3.5,6.7,5.2,10
  c0.6,1.1,0.3,1.8-0.9,2.2c-3.7,1.1-7.5,2.1-11.1,3.4c-2.1,0.8-4.2,1.8-5.9,3.1c-3,2.3-4.6,5.4-4.4,9.3c0.1,1.5,0,3,0,4.5
  c0,1.5,0.7,2.6,2,3.3c1.2,0.6,2.5,1.1,3.8,1.5c9.3,3.2,18.9,4.1,28.7,4.2c0,0.1,0,0.2,0,0.3c5.8-0.6,11.6-1,17.4-1.7
  c5.1-0.7,10-2,14.7-4.1c1.6-0.7,2.4-1.9,2.4-3.7C97.9,92.3,98,90.8,98,89.2z M31.5,79c2.3-2.1,5.1-3.4,8.1-4.2
  c1.7-0.5,3.5-0.9,5.4-1.4c-4-1.2-7.7-2.3-11.5-3.4c1-1.9,2-3.6,3-5.3c0.8-1.4,1.6-2.7,2.3-4.1c0.5-1,1.1-2,1.1-3.1
  c0.1-3.1,0-6.3-0.2-9.4c-0.4-5.4-3.1-9.3-8.1-11.5c-2.9-1.3-6.1-1.6-9.2-0.9c-2.3,0.5-4.4,1.6-6.6,2.2c-2.8,0.8-4.4,2.6-5.3,5.3
  c-0.9,2.9-0.8,5.8-0.4,8.7c0,0.4,0.1,0.8,0,1.1c-0.7,3.1-0.7,6.1,1.8,8.5c0.2,0.2,0.3,0.4,0.4,0.6c1.1,2.2,2.3,4.4,3.4,6.6
  c0.4,0.7,0.3,1.1-0.6,1.4c-2.5,0.7-5,1.5-7.5,2.2C2.6,74,0,77.4,0,82.6c0,0.7,0,1.4,0,2c0,1.4,0.6,2.4,1.9,2.9
  c0.7,0.3,1.5,0.7,2.2,0.9c7.2,2.5,14.7,3.1,22.2,3c0.2,0,0.4-0.1,0.6-0.2c0-0.2,0.1-0.3,0.1-0.4c0-0.6,0-1.2,0-1.8
  C27,85.1,28.5,81.7,31.5,79z M24.7,86.3c0,0.2-0.1,0.3-0.1,0.5C24.3,89,24.3,89,21.9,89c-6.1-0.2-12.1-1-17.8-3.1
  c-1.1-0.4-1.8-1-1.6-2.3c0.1-0.4,0-0.8,0-1.1c0-4.1,1.6-6.2,5.6-7.4c3.3-1,6.7-2,10-3c0.1,0,0.1-0.1,0.3-0.2c0.1-1.8,0.1-3.4-1-5
  c-1.3-1.8-2-4-3-6c-0.2-0.3-0.3-0.9-0.5-0.9c-0.8,0-1.2-0.4-1.3-1.1c-0.2-1.1-0.3-2.3-0.3-3.4c0-0.1,0.5-0.3,0.7-0.4
  c-0.2-2.5-0.6-5-0.7-7.5c0-1.2,0.2-2.5,0.5-3.6c0.5-1.8,1.8-2.9,3.7-3.3c0.6-0.1,1.1-0.4,1.6-0.7c4.1-2.1,8.3-2.7,12.6-1
  c4.5,1.8,6.9,6.4,6.5,11.8c-0.1,1-0.3,1.9-0.3,2.9c0,0.4,0.3,0.9,0.4,1.3c0.1,0.2,0.2,0.4,0.2,0.6c-0.1,1.1-0.2,2.3-0.4,3.4
  c-0.1,0.3-0.4,0.8-0.5,0.8c-1.2,0-1.1,1-1.4,1.6c-1,2-1.8,4.1-3.1,5.9c-1.1,1.5-1.1,3-1,4.7c1.5,0.5,3,0.9,4.8,1.5
  c-0.6,0.3-1,0.5-1.4,0.7C29.5,76.7,25.9,80.5,24.7,86.3z M128,83.4c0-4.7-2-7.7-6.3-9.5c-1.3-0.5-2.7-0.8-4.1-1.3
  c-1.8-0.6-3.6-1.1-5.3-1.7c0.1-0.3,0-0.4,0.1-0.6c1.2-2.4,2.5-4.8,3.8-7.2c0.1-0.2,0.3-0.4,0.5-0.6c1.3-1.3,2-3,2-4.8
  c0-2.9-0.2-5.7-0.4-8.6c-0.1-1-0.2-1.9-0.5-2.9c-1.9-6.8-8.8-10.9-16.2-9.5c-2.3,0.4-4.5,1.6-6.8,2.2c-2.9,0.8-4.6,2.7-5.4,5.6
  c-0.8,2.7-0.6,5.4-0.4,8.1c0.1,0.6-0.1,1.3-0.2,2c-0.4,2.5-0.3,4.9,1.2,7.2c1.8,2.8,3.3,5.8,4.9,8.7c0,0,0,0.2-0.1,0.4
  c-2.7,0.9-5.6,1.8-8.6,2.8c1.8,0.6,3.5,1.1,5,1.7c5,2,8.8,5.2,10,10.8c0.4,1.7,0.2,3.5,0.3,5.2c0,0.7,0.2,1.1,1,1.1
  c7.2,0,14.4-0.6,21.3-3C128.6,87.9,128,87.2,128,83.4z M123.6,86.9c-6.1,2.3-12.5,2.9-18.9,3.1c-0.6,0-0.9-0.2-0.9-0.9
  c0-6.8-3.6-11.4-9.1-14.7c-0.2-0.1-0.3-0.2-0.7-0.5c0.5-0.2,0.9-0.3,1.2-0.4c0.7-0.3,2-0.5,2-0.9c0.2-1.3,0.4-2.6-0.4-3.9
  c-1.3-2.2-2.4-4.6-3.5-6.9c-0.2-0.3-0.3-0.7-0.5-0.9c-0.4-0.4-1.1-0.6-1.2-1c-0.3-1.1-0.3-2.3-0.4-3.5c0-0.1,0.5-0.3,0.8-0.5
  c-0.2-1.6-0.6-3.3-0.7-5c0-1.9,0-3.9,0.4-5.8c0.4-2,1.8-3.2,3.8-3.6c0.5-0.1,1-0.4,1.5-0.6c3.5-1.9,7.2-2.6,11.1-1.4
  c4.8,1.4,7.6,5.2,7.8,10.6c0,1.6-0.2,3.1-0.3,4.7c0,0.5-0.4,1,0.4,1.2c0.1,0,0.2,0.4,0.2,0.5c-0.1,1.1-0.2,2.2-0.3,3.3
  c-0.1,0.4-0.3,0.9-0.5,0.9c-1.3,0.1-1.2,1.2-1.6,2c-1.1,2.1-2.4,4.2-3.3,6.4c-0.5,1.1-0.4,2.4-0.5,3.7c0,0.1,0.5,0.4,0.8,0.5
  c3.1,0.9,6.2,1.9,9.3,2.8c2.2,0.7,4.3,1.7,5.1,4c0.4,1.3,0.4,2.7,0.5,4.1C125.5,86.2,125.5,86.2,123.6,86.9z"/>
</svg>
