<svg xmlns="http://www.w3.org/2000/svg" viewBox="0 0 80 80"><path fill="#FFFFFF" d="M0,0v80h80V0H0z M71.6,17.8C62.3,33,53.1,48.1,43.8,63.2c-0.6,0.9-1,1-1.9,0.4c-2.4-1.6-4.7-3.2-7.1-4.8c-0.4-0.3-0.7-0.3-1.1,0c-2.4,1.6-4.7,3.2-7.1,4.8c-0.3,0.2-1,0.4-1.2,0.2c-0.3-0.2-0.5-0.8-0.5-1.2c0-3.1,0-6.2,0-9.3c0-0.7,0.2-1.1,0.7-1.5c11-8.4,22-16.8,33.1-25.3c0.3-0.2,0.5-0.4,0.8-0.6c0,0,0-0.1-0.1-0.1c-0.3,0.1-0.5,0.3-0.8,0.4c-13.1,7-26.2,14.1-39.4,21.1c-0.5,0.3-0.9,0.3-1.4-0.1c-3-2.1-6.1-4.2-9.2-6.3C8.4,40.8,8,40.2,8,39.9c0-0.3,0.6-0.8,0.9-0.9c20.5-7.6,40.9-15.2,61.4-22.8c0.5-0.2,1-0.4,1.5,0.2C72.2,16.9,71.9,17.4,71.6,17.8z"/></svg>
