<svg xmlns="http://www.w3.org/2000/svg" viewBox="0 0 512 512">
<g fill="#FFFFFF">
	<path d="M255.9,434.4c-63.2,0-126.3,0-189.5,0c-12,0-16.3-4.2-16.3-16.2c0-108.7,0-217.3,0-326
		c0-9.6,4.8-14.6,14.3-14.6c93.5,0,187,0,280.5,0c33.7,0,67.3,0,101,0c12.1,0,16,4.1,16,16.4c0,108,0,216,0,324
		c0,12.3-4.2,16.4-16.6,16.4C382.2,434.4,319,434.4,255.9,434.4z M75.7,103.1c0,102.3,0,204,0,305.7c120.4,0,240.5,0,360.6,0
		c0-102.1,0-203.8,0-305.7C316,103.1,196,103.1,75.7,103.1z"/>
	<path d="M316.2,360.9c-6.5,6.4-11.6,11.6-16.8,16.7c-5.7,5.6-10.9,4.5-13.5-3c-11.2-32-22.4-64-33.6-96
		c-1.1-3.2-1.9-6.8,1.2-8.6c2.3-1.4,6.1-2,8.6-1.1c32.3,10.9,64.4,22.1,96.6,33.3c7,2.4,8.3,7.7,3.1,12.9
		c-5.3,5.3-10.8,10.4-17.6,16.8c4.7,4.1,8.9,7.4,12.6,11c6.3,6.1,12.5,12.5,18.7,18.8c4.7,4.8,4.8,8.6,0.2,13.4
		c-5.6,5.7-11.2,11.4-16.9,17c-4.6,4.5-8.8,4.5-13.4,0c-8.5-8.5-17-16.9-25.4-25.5C318.5,365,317.6,363,316.2,360.9z"/>
	<path d="M256.4,170.8c-52,0-104,0-156,0c-1.8,0-4.1,0.6-5.4-0.3c-2.1-1.4-4.3-3.6-4.9-5.9
		c-0.8-3.4,1.7-5.6,5-6.2c1.6-0.3,3.3-0.2,5-0.2c104.3,0,208.6,0,313,0c0.5,0,1,0,1.5,0c4.2,0,7.2,1.5,7.4,6.2
		c0.2,4.1-2.5,6.3-7.7,6.4c-2,0.1-4,0-6,0C357.7,170.8,307,170.8,256.4,170.8C256.4,170.8,256.4,170.8,256.4,170.8z"/>
	<path d="M256.6,331.7c-20.8,2.8-46.1-12.5-56.3-34c-11.4-24-6.1-52.8,12.9-70.7
		c19.5-18.4,48.1-22.2,71.2-9.6c22.9,12.4,33.7,37.6,31.5,55.9c-3.5-1.2-7.1-1.9-10.2-3.6c-1.4-0.8-1.9-3.6-2.3-5.5
		c-3.3-20.4-17.7-35.8-37.8-40.4c-26.4-6.1-52.7,11.4-58.2,38.6c-5.2,25.8,12.8,52.2,38.8,56.8C254,320.4,255.2,321.8,256.6,331.7z"
		/>
	<path d="M247.8,305.6c-16.9-2.6-28.9-18.8-27.9-36.9c1-18,15.7-32.2,34-32.8
		c17.5-0.6,33.3,11.8,35.6,28.5c-6.2-2.8-12.8-3-17.6-8.7c-8.2-9.7-22.9-10-32.2-1.5c-9.5,8.7-10.6,23.8-1.3,32.6
		C244.1,292.1,245.1,298.9,247.8,305.6z"/>
	<path d="M387,130.7c0.1,5.9-4.3,10.5-10.2,10.5c-5.9,0-10.5-4.5-10.6-10.2c-0.1-5.6,4.6-10.5,10.3-10.6
		C382.2,120.2,386.9,124.9,387,130.7z"/>
	<path d="M411.4,141.1c-6,0.1-10.4-4.2-10.4-10.2c0-5.8,4.5-10.6,10.2-10.6c5.6,0,10.5,4.7,10.6,10.4
		C421.8,136.4,417.2,141.1,411.4,141.1z"/>
	<path d="M342.2,141.1c-6,0-10.3-4.3-10.3-10.3c0-5.8,4.7-10.5,10.3-10.5c5.6,0,10.5,4.9,10.5,10.5
		C352.6,136.5,348,141.1,342.2,141.1z"/>
</g>
</svg>
