<svg xmlns="http://www.w3.org/2000/svg" viewBox="0 0 512 512">
<g fill="#FFFFFF">
	<path d="M306.1,279.2c22.7-35.6,45.2-70.9,67.7-106.2c-66.1-42-161.3-45.7-235.3-0.1
		c22.7,35.6,45.2,70.9,67.8,106.3C239.8,262.3,272.9,262.2,306.1,279.2z"/>
	<path d="M122,183c-42.4,31-71.6,71.4-86.9,121.7c-5.2,17.3-8.4,34.9-9.1,53c-0.4,8.8,3,12.9,10.8,12.9
		c33.7,0.1,67.3,0.1,101,0c10.6,0,13.9-3.3,15.3-13.8c2.9-21.1,11.3-39.6,25.5-55.4c4.8-5.3,10.2-9.9,15.6-15.1
		c-22.5-35.2-45-70.5-67.8-106.3C124.5,181.3,123.2,182.1,122,183z"/>
	<path d="M486.4,356.7c-0.2-4-0.6-8-1-11.9c-6.7-57.1-31.4-105-73.3-144.1c-8-7.4-16.8-13.9-25.6-21.1
		c-23.1,36.3-45.7,71.6-68.4,107.3c3.8,3.4,7.7,6.2,10.5,9.8c3.5,4.6,7.5,4.8,12.6,4c23.5-3.4,47.1-6.6,70.7-9.7
		c7.5-1,14.3,4.3,15.9,12c1.5,7.1-2.6,14.7-9.3,17.1c-4.7,1.7-9.4,3.4-14.1,5.1c-15.9,5.8-31.8,11.6-48.1,17.6
		c1.7,7,3.1,13.9,5.2,20.5c1.9,6.1,4.2,7.4,10.8,7.4c24.8,0,49.6,0,74.4,0c8.8,0,17.7,0.1,26.5,0C483.1,370.5,487,366.4,486.4,356.7
		z"/>
	<path d="M415.2,305.3c-1.8-0.4-3.6-1.4-5.3-1.2c-15.5,2-31,4.1-46.5,6.3c-35.6,4.9-71.2,9.8-106.9,14.5
		c-9.9,1.3-17.3,9.3-17.3,19.3c0,13.6,13.2,23.1,26,18.4c48.7-17.8,97.5-35.7,146.1-53.6C412.9,308.4,413.9,306.5,415.2,305.3z"/>
</g>
</svg>
