<svg xmlns="http://www.w3.org/2000/svg" viewBox="0 0 280 40">
	<path fill="#FFFFFF" d="M133.5,9.6c7.2,0,14.4,0,21.6,0c1.6,0,2.9-0.4,4.2-1.1c0.8-0.5,1.6-1,2.3-1.6
		c1.2-1.1,2-2.3,2.4-3.9h-38v20.1h1.1c9.8,0,19.5,0,29.3,0c0.6,0,0.8,0.1,0.8,0.8c0,1.9,0,3.7,0,5.6c0,0.9,0,0.9-0.9,0.9
		c-7.7,0-15.4,0-23.1,0c-0.3,0-0.7,0-1,0.1c-2.7,0.8-5,2.3-6.8,4.4c-0.6,0.7-1,1.4-1.5,2.2h39.9v-0.8c0-6.3,0-12.6,0-18.9
		c0-0.9,0-0.9-0.9-0.9c-7.2,0-14.3,0-21.5,0c-2.7,0-5.5,0-8.2,0c-0.5,0-0.6-0.1-0.6-0.6c0-1.3,0-2.5,0-3.8V9.6H133.5z M6,3.2
		c0,0.1,0,0.2,0.1,0.3c0.7,2.1,2,3.8,3.9,5c1.3,0.9,2.7,1.4,4.4,1.3c3-0.1,6.1,0,9.1,0c1.1,0,1.1,0,1.1,1.1V37h6.8V10.8
		c0-1,0-1,1.1-1c3.2,0,6.3,0,9.5,0c0.9,0,1.7-0.2,2.5-0.5C47.3,8,49.1,6,50,3H6C6,3.1,6,3.1,6,3.2z M235,37h6.6V23.6h24.7V37h6.6
		V17h-38V37z M190.7,3H184v34c0.2,0,0.4,0,0.6,0c10,0,20,0,30,0c0.2,0,0.4,0,0.6-0.1c3-1.3,4.9-3.4,5.8-6.6h-30.3V3z M69.3,22.2
		c1.2,1,2.5,1.8,4.1,1.8c8.4,0,16.8,0,25.2,0c0.3,0,0.6,0,0.9-0.1c3.2-1,5.3-3.2,6.4-6.4c0.1-0.1,0.1-0.3,0.1-0.5H66
		C66.6,19.1,67.7,20.9,69.3,22.2z M69.9,35.6c1.3,0.9,2.7,1.4,4.3,1.4c8.1,0,16.1,0,24.2,0c0.2,0,0.5,0,0.7,0c3-0.4,6.4-3.9,6.9-7
		H66C66.7,32.4,68,34.2,69.9,35.6z M237.5,8.3c1.4,1.1,3,1.7,4.9,1.7c8,0,15.9,0,23.9,0c0.3,0,0.5,0,0.8,0c3.6-0.9,5.8-3.4,7-6.9
		h-40C234.6,5.2,235.8,6.9,237.5,8.3z M69.4,8.2c1.2,1,2.6,1.8,4.2,1.8c8.3,0,16.6,0,24.9,0c0.4,0,0.8,0,1.1-0.1
		c1.9-0.5,3.4-1.7,4.6-3.3c0.8-1,1.4-2.2,1.8-3.6H66C66.6,5.2,67.7,6.9,69.4,8.2z"/>
</svg>
