<svg xmlns="http://www.w3.org/2000/svg" width="269" height="179" viewBox="0 0 269 179">
  <g fill="none" fill-rule="evenodd" transform="translate(3 3)">
    <path stroke="#FF9425" stroke-width="6" d="M131.239501,19.6475659 L131.239501,0.595156066"/>
    <path stroke="#CBCBCB" stroke-width="6" d="M8.62295082e-05,131.239414 C8.62295082e-05,58.758339 58.7577354,-0.000172459016 131.239673,-0.000172459016 C203.720749,-0.000172459016 262.47926,58.758339 262.47926,131.239414"/>
    <path fill="#FF9424" d="M139.102856,123.376059 C139.102856,127.71944 135.582105,131.239328 131.239587,131.239328 C126.896207,131.239328 123.376318,127.71944 123.376318,123.376059 C123.376318,119.033541 131.239587,94.3296495 131.239587,94.3296495 C131.239587,94.3296495 139.102856,119.033541 139.102856,123.376059"/>
    <path stroke="#CBCBCB" stroke-width="6" d="M45.7325095 59.5459593L32.2600111 46.073461M223.910526 67.3074774L237.383024 53.834979"/>
    <text fill="#FF9425" font-family="Roboto-Medium, Roboto" font-size="20" font-weight="400">
      <tspan x="77.548" y="174.718">Satisfaisant</tspan>
    </text>
  </g>
</svg>
