<svg xmlns="http://www.w3.org/2000/svg" width="268" height="177" viewBox="0 0 268 177">
  <g fill="none" fill-rule="evenodd" transform="translate(3 3)">
    <text fill="#7ED321" transform="translate(91 153.718)" font-size="20" font-family="Roboto-Medium, Roboto" font-weight="400">
      <tspan x="21.451" y="19">Bon</tspan>
    </text>
    <g transform="translate(.152)">
      <path stroke="#7ED321" stroke-width="6" d="M45.5396513,59.3129726 L32.1239677,45.8931884"/>
      <path stroke="#CBCBCB" stroke-width="6" d="M0,130.726083 C0,58.5286058 58.5098628,0 130.686138,0 C202.861554,0 261.372275,58.5286058 261.372275,130.726083"/>
      <path fill="#7ED321" d="M120.557399,137.874884 C116.232336,137.874884 112.727291,134.368768 112.727291,130.042382 C112.727291,125.716855 120.557399,101.109622 120.557399,101.109622 C120.557399,101.109622 128.387508,125.716855 128.387508,130.042382 C128.387508,134.368768 124.881605,137.874884 120.557399,137.874884 Z" transform="rotate(-52 120.557 119.492)"/>
      <path stroke="#CBCBCB" stroke-width="6" d="M130.686052 19.5706905L130.686052.592827386M222.966274 67.044122L236.381958 53.6243378"/>
    </g>
  </g>
</svg>
