<svg xmlns="http://www.w3.org/2000/svg" width="267" height="136" viewBox="0 0 267 136">
  <g fill="none" fill-rule="evenodd" transform="translate(3 3)">
    <path stroke="#D81919" stroke-width="6" d="M221.897474,66.5345133 L235.248849,53.2167341"/>
    <path stroke="#CBCBCB" stroke-width="6" d="M45.3213547 58.8621291L31.9699799 45.5443499M0 129.732422C0 58.0837243 58.2293928 0 130.059687 0 201.889127 0 260.119374 58.0837243 260.119374 129.732422"/>
    <path fill="#D81919" d="M138.853368,136.416469 C134.549036,136.416469 131.060793,132.937003 131.060793,128.643503 C131.060793,124.350855 138.853368,99.9306641 138.853368,99.9306641 C138.853368,99.9306641 146.645942,124.350855 146.645942,128.643503 C146.645942,132.937003 143.156845,136.416469 138.853368,136.416469 Z" transform="scale(-1 1) rotate(-52 0 402.865)"/>
    <path stroke="#CBCBCB" stroke-width="6" d="M130.059601,19.4219318 L130.059601,0.588321249"/>
  </g>
</svg>
