<svg xmlns="http://www.w3.org/2000/svg" width="513" height="422" viewBox="0 0 513 422" xmlns:xlink="http://www.w3.org/1999/xlink">
  <defs>
    <polygon id="a" points="0 422 512.477 422 512.477 .202 0 .202"/>
  </defs>
  <g fill="none" fill-rule="evenodd" transform="translate(0 -1)">
    <g transform="translate(0 .798)">
      <path stroke="#221F20" stroke-width="6" d="M120.1543 183.5818L117.2363 185.1448C115.7833 185.9248 114.1603 186.3318 112.5113 186.3318L45.5763 186.3318C43.8233 186.3318 42.1013 185.8708 40.5823 184.9958L38.1893 183.6158C35.6733 182.1658 33.9113 179.6928 33.3633 176.8418L33.6653 6.5368C33.9893 4.6108 35.6563 3.2018 37.6093 3.2018L120.0503 3.2018C121.9663 3.2018 123.6133 4.5608 123.9773 6.4408L125.2503 176.6568C124.6813 179.6148 122.8093 182.1578 120.1543 183.5818zM466.4819 186.3318L399.5469 186.3318C399.0439 186.3318 397.8719 184.9658 396.4419 182.9488 390.4459 174.4918 387.3379 164.3248 387.3579 153.9588L387.6349 6.5368C387.9599 4.6108 389.6279 3.2018 391.5799 3.2018L474.0209 3.2018C475.9369 3.2018 477.5839 4.5608 477.9479 6.4408L479.1129 153.0728C479.1999 164.0938 475.7589 174.9008 469.0879 183.6738 467.8609 185.2868 466.8939 186.3318 466.4819 186.3318zM297.1186 183.5818L295.7386 184.3208C293.3416 185.6058 290.5246 185.8588 287.9376 185.0228L283.1706 183.4818C265.6386 177.8138 246.7716 177.7698 229.2136 183.3568L224.0686 184.9938C221.3906 185.8468 218.4776 185.5318 216.0426 184.1288L215.1536 183.6158C212.6376 182.1658 210.8756 179.6928 210.3276 176.8418L210.6286 6.5368C210.9536 4.6108 212.6206 3.2018 214.5736 3.2018L297.0146 3.2018C298.9306 3.2018 300.5776 4.5608 300.9416 6.4408L302.2146 176.6568C301.6456 179.6148 299.7736 182.1578 297.1186 183.5818zM0 189.3328L512.477 189.3328"/>
      <path fill="#221F20" d="M259.0346,310.6336 C260.8156,310.6336 262.2606,312.0776 262.2606,313.8596 C262.2606,315.6406 260.8156,317.0846 259.0346,317.0846 C257.2526,317.0846 247.1176,313.8596 247.1176,313.8596 C247.1176,313.8596 257.2526,310.6336 259.0346,310.6336"/>
      <path stroke="#F79224" stroke-width="2.123" d="M257.6914,274.7713 L257.6914,266.9553"/>
      <path stroke="#7CC142" stroke-width="2.123" d="M208.2221,314.6463 L216.0381,314.6463"/>
      <path stroke="#221F20" stroke-width="2.123" d="M297.7885,314.6463 L305.6045,314.6463"/>
      <path stroke="#F79224" stroke-width="2.123" d="M224.6123,289.1394 L219.0853,283.6124"/>
      <path stroke="#ED2825" stroke-width="2.123" d="M288.7099,289.1394 L294.2369,283.6124"/>
      <path stroke="#221F20" stroke-width="2.123" d="M288.7099,341.0642 L294.2369,346.5912"/>
      <path stroke="#7CC142" stroke-width="2.123" d="M224.6123,341.0642 L219.0853,346.5912"/>
      <path stroke="#221F20" stroke-width="3" d="M318.4941,315.0564 C318.4941,349.0614 290.9281,376.6274 256.9241,376.6274 C222.9191,376.6274 195.3531,349.0614 195.3531,315.0564 C195.3531,281.0524 222.9191,253.4864 256.9241,253.4864 C290.9281,253.4864 318.4941,281.0524 318.4941,315.0564 Z"/>
      <path stroke="#221F20" stroke-width="3" d="M257.811,399.8396 C257.811,399.8396 264.854,451.2436 188.139,391.8866 C114.04,334.5556 191.699,246.0696 160.14,148.2996 C148.837,113.2816 125.982,112.4616 125.982,112.4616"/>
      <path stroke="#221F20" stroke-width="1.918" d="M229.8008,345.8201 C221.2838,338.3051 215.9118,327.3081 215.9118,315.0561 C215.9118,292.4061 234.2738,274.0451 256.9238,274.0451 C279.5738,274.0451 297.9358,292.4061 297.9358,315.0561 C297.9358,327.3601 292.5188,338.3981 283.9388,345.9151"/>
      <mask id="b" fill="white">
        <use xlink:href="#a"/>
      </mask>
      <polygon stroke="#221F20" stroke-width="3" points="250.103 398.808 263.745 398.808 263.745 376.829 250.103 376.829" mask="url(#b)"/>
    </g>
    <text fill="#231F20" font-family="Avenir-Heavy, Avenir" font-size="18" font-weight="600">
      <tspan x="61.516" y="224">Bons</tspan>
    </text>
    <text fill="#231F20" font-family="Avenir-Heavy, Avenir" font-size="18" font-weight="600">
      <tspan x="203.522" y="224">Sous-gonflés</tspan>
    </text>
    <text fill="#231F20" font-family="Avenir-Heavy, Avenir" font-size="18" font-weight="600">
      <tspan x="386.002" y="224">Sur-gonflés</tspan>
    </text>
    <g stroke="#010202" stroke-width="2.123" transform="translate(33 3.798)">
      <path d="M.6357 15.7547L7.3397 15.7547M.6357 34.7576L7.3397 34.7576M.6357 53.7605L7.3397 53.7605M.6357 72.7635L7.3397 72.7635M.6357 91.7664L7.3397 91.7664M.6357 110.7703L7.3397 110.7703M.6357 129.7732L7.3397 129.7732M.6357 148.7762L7.3397 148.7762M.6357 167.7791L7.3397 167.7791M84.603 15.7547L91.308 15.7547M84.603 34.7576L91.308 34.7576M84.603 53.7605L91.308 53.7605M84.603 72.7635L91.308 72.7635M84.603 91.7664L91.308 91.7664M84.603 110.7703L91.308 110.7703M84.603 129.7732L91.308 129.7732M84.603 148.7762L91.308 148.7762M84.603 167.7791L91.308 167.7791M177.3276 15.7547L184.0316 15.7547M177.3276 34.7576L184.0316 34.7576M177.3276 53.7605L184.0316 53.7605M177.3276 72.7635L184.0316 72.7635M177.3276 91.7664L184.0316 91.7664M177.3276 110.7703L184.0316 110.7703M177.3276 129.7732L184.0316 129.7732M177.3276 148.7762L184.0316 148.7762M177.3276 167.7791L184.0316 167.7791M261.2954 15.7547L267.9994 15.7547M261.2954 34.7576L267.9994 34.7576M261.2954 53.7605L267.9994 53.7605M261.2954 72.7635L267.9994 72.7635M261.2954 91.7664L267.9994 91.7664M261.2954 110.7703L267.9994 110.7703M261.2954 129.7732L267.9994 129.7732M261.2954 148.7762L267.9994 148.7762M261.2954 167.7791L267.9994 167.7791M354.8999 15.7547L361.6039 15.7547M354.8999 34.7576L361.6039 34.7576M354.8999 53.7605L361.6039 53.7605M354.8999 72.7635L361.6039 72.7635M354.8999 91.7664L361.6039 91.7664M354.8999 110.7703L361.6039 110.7703M354.8999 129.7732L361.6039 129.7732M354.8999 148.7762L361.6039 148.7762M354.8999 167.7791L364.6039 167.7791M438.8676 15.7547L445.5716 15.7547M438.8676 34.7576L445.5716 34.7576M438.8676 53.7605L445.5716 53.7605M438.8676 72.7635L445.5716 72.7635M438.8676 91.7664L445.5716 91.7664M438.8676 110.7703L445.5716 110.7703M438.8676 129.7732L445.5716 129.7732M438.8676 148.7762L445.5716 148.7762M435.8676 167.7791L445.5716 167.7791M27.0913.2019L27.0913 182.5079M35.2695.2019L35.2695 182.5079M42.2182.2019L42.2182 182.5079M50.3965.2019L50.3965 182.5079M219.1826.2019L219.1826 175.5079M227.3608.2019L227.3608 175.5079M396.1469.2019L396.1469 182.5079M404.3247.2019L404.3247 182.5079M57.3457.2019L57.3457 182.5079M65.5234.2019L65.5234 182.5079M35.2695 3.1472L27.3765 11.0402M35.2695 21.865L27.3765 29.758M35.2695 40.5828L27.3765 48.4758M35.2695 59.3006L27.3765 67.1936M35.2695 78.0183L27.3765 85.9113M35.2695 96.7361L27.3765 104.6291M35.2695 115.4539L27.3765 123.3469M35.2695 134.1717L27.3765 142.0647M35.2695 152.8894L27.3765 160.7834M35.2695 171.6072L27.3765 179.5012M57.3457 3.1472L65.2387 11.0402M57.3457 21.865L65.2387 29.758M57.3457 40.5828L65.2387 48.4758M57.3457 59.3006L65.2387 67.1936M57.3457 78.0183L65.2387 85.9113M57.3457 96.7361L65.2387 104.6291M57.3457 115.4539L65.2387 123.3469M57.3457 134.1717L65.2387 142.0647M57.3457 152.8894L65.2387 160.7834M57.3457 171.6072L65.2387 179.5012M204.0556.2019L204.0556 176.5079M212.2339.2019L212.2339 176.5079M234.3095.2019L234.3095 177.5079M242.4878.2019L242.4878 177.5079M212.2339 3.1472L204.3409 11.0402M212.2339 21.865L204.3409 29.758M212.2339 40.5828L204.3409 48.4758M212.2339 59.3006L204.3409 67.1936M212.2339 78.0183L204.3409 85.9113M212.2339 96.7361L204.3409 104.6291M212.2339 115.4539L204.3409 123.3469M212.2339 134.1717L204.3409 142.0647M212.2339 152.8894L204.3409 160.7834M212.2339 171.6072L204.3409 179.5012M234.3095 3.1472L242.2025 11.0402M234.3095 21.865L242.2025 29.758M234.3095 40.5828L242.2025 48.4758M234.3095 59.3006L242.2025 67.1936M234.3095 78.0183L242.2025 85.9113M234.3095 96.7361L242.2025 104.6291M234.3095 115.4539L242.2025 123.3469M234.3095 134.1717L242.2025 142.0647M234.3095 152.8894L242.2025 160.7834M234.3095 171.6072L242.2025 179.5012M381.02.2019L381.02 182.5079M389.1977.2019L389.1977 182.5079M411.2739.2019L411.2739 182.5079M419.4516.2019L419.4516 182.5079M389.1977 3.1472L381.3047 11.0402M389.1977 21.865L381.3047 29.758M389.1977 40.5828L381.3047 48.4758M389.1977 59.3006L381.3047 67.1936M389.1977 78.0183L381.3047 85.9113M389.1977 96.7361L381.3047 104.6291M389.1977 115.4539L381.3047 123.3469M389.1977 134.1717L381.3047 142.0647M389.1977 152.8894L381.3047 160.7834M389.1977 171.6072L381.3047 179.5012M411.2739 3.1472L419.1669 11.0402M411.2739 21.865L419.1669 29.758M411.2739 40.5828L419.1669 48.4758M411.2739 59.3006L419.1669 67.1936M411.2739 78.0183L419.1669 85.9113M411.2739 96.7361L419.1669 104.6291M411.2739 115.4539L419.1669 123.3469M411.2739 134.1717L419.1669 142.0647M411.2739 152.8894L419.1669 160.7834M411.2739 171.6072L419.1669 179.5012"/>
    </g>
  </g>
</svg>
